<?xml version="1.0" standalone="no"?>
<!DOCTYPE svg PUBLIC "-//W3C//DTD SVG 20010904//EN"
 "http://www.w3.org/TR/2001/REC-SVG-20010904/DTD/svg10.dtd">
<svg version="1.0" xmlns="http://www.w3.org/2000/svg"
 width="1067.000000pt" height="1067.000000pt" viewBox="0 0 1067.000000 1067.000000"
 preserveAspectRatio="xMidYMid meet">

<g transform="translate(0.000000,1067.000000) scale(0.100000,-0.100000)"
fill="#000000" stroke="none">
<path d="M0 5335 l0 -5335 5335 0 5335 0 0 5335 0 5335 -5335 0 -5335 0 0
-5335z m4939 2114 c25 -5 55 -21 70 -38 21 -23 37 -29 91 -34 51 -5 89 -19
175 -62 85 -43 125 -57 178 -63 60 -8 72 -12 93 -40 19 -24 46 -38 120 -62 69
-23 105 -41 128 -65 29 -29 42 -34 102 -40 112 -10 157 -24 218 -65 61 -42
110 -60 162 -60 45 0 92 -19 99 -40 7 -22 44 -37 115 -45 63 -8 125 -33 172
-69 44 -33 79 -45 161 -56 61 -7 73 -13 101 -43 19 -21 51 -40 86 -52 67 -22
108 -50 120 -81 7 -16 20 -25 47 -30 47 -8 73 -21 73 -36 0 -21 33 -48 60 -48
32 0 57 -17 73 -50 7 -13 36 -36 66 -50 64 -32 80 -51 73 -85 -3 -20 0 -25 16
-25 26 0 42 -20 49 -65 5 -29 14 -42 40 -57 20 -12 35 -31 39 -47 11 -55 23
-69 66 -82 48 -16 54 -27 64 -123 5 -47 11 -64 34 -85 29 -26 47 -78 71 -196
12 -64 41 -131 59 -137 23 -7 32 -91 37 -343 6 -301 -5 -456 -37 -490 -24 -25
-42 -75 -65 -180 -19 -90 -37 -130 -71 -161 -16 -16 -24 -38 -29 -80 -9 -83
-20 -104 -64 -121 -40 -16 -61 -46 -61 -89 0 -32 -18 -66 -31 -59 -20 13 -48
-8 -69 -53 -26 -56 -47 -81 -77 -93 -13 -5 -25 -20 -28 -36 -14 -68 -19 -75
-70 -94 -27 -10 -81 -44 -120 -75 -206 -165 -405 -254 -569 -254 -49 0 -65
-13 -45 -36 20 -24 -2 -31 -110 -40 -115 -8 -558 2 -618 14 -24 5 -51 19 -61
32 -15 18 -33 24 -107 31 -68 7 -103 16 -145 38 -143 76 -156 81 -249 90 -87
9 -95 12 -126 43 -22 23 -52 40 -96 53 -86 25 -120 42 -145 72 -19 22 -34 27
-110 35 -130 14 -163 25 -198 65 -36 41 -81 63 -130 63 -48 0 -87 17 -112 47
-18 23 -30 26 -125 35 -125 12 -150 22 -161 66 -11 41 -54 62 -127 62 -65 0
-101 14 -101 39 0 27 -23 37 -97 44 -157 13 -342 169 -343 289 0 45 -21 79
-52 85 -34 7 -35 10 -3 34 22 18 47 65 105 196 47 108 133 148 297 141 77 -3
87 -5 106 -29 29 -35 58 -49 101 -49 50 0 124 -27 176 -65 51 -37 91 -51 170
-61 70 -9 100 -20 100 -38 0 -27 61 -41 175 -40 162 1 220 16 272 70 64 66 87
152 80 298 -6 120 -26 203 -55 230 -11 9 -47 20 -85 24 -61 8 -70 12 -104 49
-29 31 -53 45 -98 58 -42 13 -69 28 -91 52 -30 33 -38 35 -138 49 -106 13
-143 27 -215 79 -33 24 -61 34 -146 52 -27 5 -43 15 -50 31 -12 27 -48 39
-145 46 -99 7 -133 20 -165 62 -32 42 -58 53 -144 64 -55 7 -67 13 -96 44 -27
30 -40 36 -72 36 -58 0 -134 25 -183 61 -59 43 -93 56 -180 68 -66 9 -78 14
-101 42 -20 25 -36 33 -80 40 -56 9 -89 34 -89 69 0 21 -26 45 -65 57 -46 15
-57 61 -53 230 3 157 7 167 70 187 26 9 36 19 46 53 18 57 52 68 207 67 138 0
215 -18 280 -65 48 -34 121 -59 176 -59 45 0 89 -18 89 -36 0 -19 53 -44 93
-44 50 0 123 -25 163 -55 53 -41 116 -65 196 -75 60 -7 76 -13 93 -34 22 -28
61 -44 175 -71 60 -15 82 -26 111 -55 34 -34 44 -38 109 -44 62 -6 76 -12 99
-36 32 -35 68 -51 189 -80 56 -13 109 -34 135 -51 59 -40 131 -53 292 -54 166
0 221 13 275 64 50 47 70 116 70 235 0 152 -40 266 -107 312 -17 11 -55 24
-84 27 -29 4 -74 17 -99 31 -25 13 -71 37 -102 54 -35 18 -81 33 -115 37 -70
8 -113 23 -113 40 0 22 -26 35 -86 45 -107 18 -264 151 -327 279 -27 56 -32
76 -32 141 0 116 34 182 116 227 37 20 52 34 56 55 4 21 14 30 37 37 43 13
201 13 255 0z"/>
</g>
</svg>
